#!OML:ASF E:\I on waltz\AllaLogoMonkeySwing\Project 1\Capture day 1\Session 1\Subject1.ASF
:FULLY-SPECIFIED
:DEGREES
356
root 0.97262 17.3287 1.98096 178.751 -207.513 183.92
lowerback 13.5003 2.66435 -5.86024
upperback 2.76996 2.62234 -2.25879
thorax -4.78914 1.37565 0.464882
lowerneck -3.1295 13.8433 6.18484
upperneck 6.56404 18.9722 -9.07857
head 3.92611 9.24958 -2.6592
rclavicle -3.1408e-014 1.03368e-014
rhumerus -34.9147 -38.9857 -68.7787
rradius 21.5464
rwrist 8.78532
rhand -9.66344 -35.2376
rfingers 7.12502
rthumb 16.3077 -64.5719
lclavicle -3.1408e-014 1.03368e-014
lhumerus -32.2408 14.577 81.8209
lradius 48.3332
lwrist -1.94928
lhand -6.72734 -11.1437
lfingers 7.12502
lthumb 19.133 17.9352
rfemur -19.9768 -12.152 6.83603
rtibia 27.3076
rfoot -4.07415 -22.3457
rtoes 33.2426
lfemur 7.34974 -4.3189 -22.844
ltibia 22.4755
lfoot -23.9611 -2.84746
ltoes -25.9559
357
root 0.955238 17.4133 1.88058 178.25 -207.963 182.76
lowerback 13.3547 2.78496 -5.03069
upperback 2.86728 2.91954 -2.14962
thorax -4.58887 1.50799 0.0737422
lowerneck -3.40808 13.4841 5.88227
upperneck 7.41656 18.5162 -8.57354
head 4.11981 9.00791 -2.46596
rclavicle -6.64935e-014 2.14687e-014
rhumerus -35.8763 -39.8322 -68.5388
rradius 20.7133
rwrist 10.6821
rhand -9.17302 -35.5481
rfingers 7.12502
rthumb 16.7799 -64.843
lclavicle -6.64935e-014 2.14687e-014
lhumerus -32.44 15.3399 80.9675
lradius 48.9856
lwrist 0.239519
lhand -8.63173 -10.9406
lfingers 7.12502
lthumb 17.3009 18.3093
rfemur -18.8265 -12.6233 7.91168
rtibia 25.3334
rfoot -6.44312 -22.3657
rtoes 30.6568
lfemur 6.98704 -4.56772 -21.7421
ltibia 22.269
lfoot -23.1442 -3.13504
ltoes -25.5039
358
root 0.939632 17.4907 1.7816 177.884 -208.299 181.86
lowerback 13.1828 2.97779 -4.44144
upperback 2.93555 3.27337 -2.09282
thorax -4.40898 1.67346 -0.246097
lowerneck -3.73487 13.1072 5.52844
upperneck 8.47493 18.0347 -7.8974
head 4.36642 8.75543 -2.2087
rclavicle 7.32522e-014 -3.81667e-014
rhumerus -36.8375 -40.7883 -68.0994
rradius 19.8892
rwrist 13.6429
rhand -8.52732 -35.7735
rfingers 7.12502
rthumb 17.4014 -65.0146
lclavicle 7.32522e-014 -3.81667e-014
lhumerus -32.6927 15.7494 80.1805
lradius 49.6471
lwrist 2.6842
lhand -9.94829 -10.697
lfingers 7.12502
lthumb 16.0334 18.6596
rfemur -17.7699 -13.0858 8.69525
rtibia 23.4893
rfoot -8.59562 -21.5762
rtoes 29.2122
lfemur 6.87481 -4.55735 -20.8728
ltibia 21.5582
lfoot -22.2287 -3.38534
ltoes -25.7102
359
root 0.921016 17.5592 1.68714 177.658 -208.535 181.255
lowerback 13.0683 3.18022 -4.19927
upperback 2.93701 3.58197 -2.07642
thorax -4.34112 1.8226 -0.410672
lowerneck -4.23295 12.7205 5.14466
upperneck 9.97735 17.5561 -7.10193
head 4.77088 8.49787 -1.88528
rclavicle -8.44835e-015 1.27222e-014
rhumerus -37.8298 -41.8937 -67.3453
rradius 18.876
rwrist 17.6488
rhand -8.51073 -35.2027
rfingers 7.12502
rthumb 17.4174 -64.4423
lclavicle -8.44835e-015 1.27222e-014
lhumerus -33.0729 16.1066 79.2887
lradius 50.3027
lwrist 4.97177
lhand -10.5302 -10.215
lfingers 7.12502
lthumb 15.4731 19.1858
rfemur -16.7512 -13.0422 9.11927
rtibia 21.6656
rfoot -10.0742 -20.9328
rtoes 28.0297
lfemur 6.96723 -4.41775 -20.2761
ltibia 20.4486
lfoot -21.2642 -3.50539
ltoes -26.8192
360
root 0.89562 17.6204 1.59703 177.733 -208.773 180.95
lowerback 12.8831 3.35074 -4.31077
upperback 2.83086 3.79702 -2.11798
thorax -4.36148 1.93052 -0.422272
lowerneck -4.9548 12.2861 4.78514
upperneck 12.0012 17.0338 -6.25291
head 5.37869 8.21129 -1.52069
rclavicle 1.78906e-014 8.74653e-015
rhumerus -38.5769 -42.5364 -66.7855
rradius 17.876
rwrist 21.4151
rhand -9.21536 -34.288
rfingers 7.12502
rthumb 16.7391 -63.5863
lclavicle 1.78906e-014 8.74653e-015
lhumerus -33.5792 16.4179 78.2685
lradius 50.8752
lwrist 6.9441
lhand -10.5679 -9.81002
lfingers 7.12502
lthumb 15.4367 19.5936
rfemur -15.9876 -12.652 9.23571
rtibia 20.042
rfoot -10.5238 -20.7805
rtoes 26.6582
lfemur 6.94941 -4.28726 -19.9262
ltibia 19.2386
lfoot -20.4782 -3.69374
ltoes -27.6182
